<svg width="35" height="35" viewBox="0 0 35 35" fill="none" xmlns="http://www.w3.org/2000/svg">
<path d="M31.2667 16.1144L17.8646 29.5165C16.2227 31.1584 13.9959 32.0808 11.674 32.0808C9.35202 32.0808 7.12519 31.1584 5.48333 29.5165C3.84148 27.8747 2.91909 25.6478 2.91909 23.3259C2.91909 21.0039 3.84148 18.7771 5.48333 17.1353L18.8854 3.73318C19.98 2.6386 21.4645 2.02368 23.0125 2.02368C24.5605 2.02368 26.045 2.6386 27.1396 3.73318C28.2342 4.82775 28.8491 6.3123 28.8491 7.86026C28.8491 9.40821 28.2342 10.8928 27.1396 11.9873L13.7229 25.3894C13.1756 25.9367 12.4334 26.2442 11.6594 26.2442C10.8854 26.2442 10.1431 25.9367 9.59583 25.3894C9.04855 24.8421 8.74109 24.0999 8.74109 23.3259C8.74109 22.5519 9.04855 21.8096 9.59583 21.2623L21.9771 8.89568" stroke="black" stroke-width="2.91667" stroke-linecap="round" stroke-linejoin="round"/>
</svg>
