<svg width="35" height="35" viewBox="0 0 35 35" fill="none" xmlns="http://www.w3.org/2000/svg">
<path d="M4.375 8.75H7.29167H30.625" stroke="black" stroke-width="2.91667" stroke-linecap="round" stroke-linejoin="round"/>
<path d="M27.7083 8.75008V29.1667C27.7083 29.9403 27.401 30.6822 26.854 31.2291C26.307 31.7761 25.5652 32.0834 24.7916 32.0834H10.2083C9.43474 32.0834 8.69288 31.7761 8.1459 31.2291C7.59892 30.6822 7.29163 29.9403 7.29163 29.1667V8.75008M11.6666 8.75008V5.83341C11.6666 5.05987 11.9739 4.318 12.5209 3.77102C13.0679 3.22404 13.8097 2.91675 14.5833 2.91675H20.4166C21.1902 2.91675 21.932 3.22404 22.479 3.77102C23.026 4.318 23.3333 5.05987 23.3333 5.83341V8.75008" stroke="black" stroke-width="2.91667" stroke-linecap="round" stroke-linejoin="round"/>
</svg>
