<svg width="35" height="35" viewBox="0 0 35 35" fill="none" xmlns="http://www.w3.org/2000/svg">
  <path d="M24.7916 4.37512C25.1746 3.99209 25.6294 3.68826 26.1298 3.48097C26.6302 3.27368 27.1666 3.16699 27.7083 3.16699C28.25 3.16699 28.7863 3.27368 29.2868 3.48097C29.7872 3.68826 30.2419 3.99209 30.625 4.37512C31.008 4.75814 31.3118 5.21285 31.5191 5.71329C31.7264 6.21374 31.8331 6.75011 31.8331 7.29178C31.8331 7.83346 31.7264 8.36983 31.5191 8.87027C31.3118 9.37071 31.008 9.82543 30.625 10.2084L10.9375 29.8959L2.91663 32.0834L5.10413 24.0626L24.7916 4.37512Z" stroke="black" stroke-width="2.91667" stroke-linecap="round" stroke-linejoin="round" />
</svg>